<?xml version="1.0" encoding="utf-8"?>
<!-- Generator: Adobe Illustrator 23.0.5, SVG Export Plug-In . SVG Version: 6.00 Build 0)  -->
<svg version="1.1"
	 id="svg44172" inkscape:export-filename="/home/sam/Dropbox/scalland/logos/scalland_s00_02.png" inkscape:export-xdpi="96" inkscape:export-ydpi="96" inkscape:version="1.1.2 (0a00cf5339, 2022-02-04)" sodipodi:docname="scalland_s00_02.svg" xmlns:inkscape="http://www.inkscape.org/namespaces/inkscape" xmlns:sodipodi="http://sodipodi.sourceforge.net/DTD/sodipodi-0.dtd" xmlns:svg="http://www.w3.org/2000/svg"
	 xmlns="http://www.w3.org/2000/svg" xmlns:xlink="http://www.w3.org/1999/xlink" x="0px" y="0px" viewBox="0 0 878.7 195.6"
	 style="enable-background:new 0 0 878.7 195.6;" xml:space="preserve">
<style type="text/css">
	.st0{fill-rule:evenodd;clip-rule:evenodd;}
	.st1{fill:#232931;}
	.st2{fill:#FFFFFF;stroke:#000000;stroke-miterlimit:10;}
</style>
<g>
	
		<sodipodi:namedview  bordercolor="#666666" borderopacity="1.0" id="namedview44174" inkscape:current-layer="layer1" inkscape:cx="490.2052" inkscape:cy="101.19902" inkscape:document-units="mm" inkscape:pagecheckerboard="0" inkscape:pageopacity="0.0" inkscape:pageshadow="2" inkscape:window-height="1016" inkscape:window-maximized="1" inkscape:window-width="2560" inkscape:window-x="0" inkscape:window-y="0" inkscape:zoom="0.69664703" pagecolor="#ffffff" showgrid="true">
		<inkscape:grid  id="grid44176" type="xygrid"></inkscape:grid>
	</sodipodi:namedview>
	<g id="layer1_2_" inkscape:groupmode="layer" inkscape:label="Layer 1">
		<g id="g40418_2_" transform="matrix(0.23029396,0,0,0.23029396,-264.5143,111.95844)">
		</g>
		<g id="g272_2_" transform="matrix(0.64777175,0,0,0.45717175,-7.6303812,13.854696)">
			<rect id="rect33_2_" x="35.9" y="105.3" class="st0" width="150" height="45"/>
			<rect id="rect33-8_2_" x="200.9" y="105.3" class="st0" width="150" height="75"/>
			<rect id="rect33-8-2_2_" x="200.9" y="195.3" class="st0" width="150" height="75"/>
			<rect id="rect33-2_2_" x="35.9" y="163.8" class="st0" width="150" height="46.5"/>
			<rect id="rect33-2-6_2_" x="35.9" y="225.3" class="st0" width="150" height="46.5"/>
			<rect id="rect33-1_2_" x="365.9" y="105.3" class="st0" width="150" height="45"/>
			<rect id="rect33-2-8_2_" x="365.9" y="163.8" class="st0" width="150" height="46.5"/>
			<rect id="rect33-2-6-5_2_" x="365.9" y="225.3" class="st0" width="150" height="46.5"/>
		</g>
		<rect id="rect43430_2_" x="343.4" y="17.2" width="15" height="165"/>
		<g id="g217_1_" transform="matrix(1.0027019,0,0,1,0.15821504,0)">
			<g id="SvgjsG1859_2_" transform="matrix(0.655094,0,0,0.91797096,135.42044,3.447)">
				<path id="path44135_2_" class="st1" d="M406.4,73.2h39.7l12.1,12.1v25.1l-12.1,12.1h-8.9V91h-39.7l-12.1-12.1V53.8l12.1-12.1
					h8.9V73.2z M446.1,41.6l12.1,12.1v12.1h-15.4l-6.5-6.5h-26.7V41.6H446.1L446.1,41.6z M434,104.8v17.8h-36.4l-12.1-12.1V98.3
					h15.4l6.5,6.5H434L434,104.8z M505.3,122.6h-8.9l-12.1-12.1V53.8l12.1-12.1h8.9V122.6L505.3,122.6z M540.9,41.6L553,53.8v12.1
					h-15.4l-6.5-6.5h-22.7V41.6L540.9,41.6L540.9,41.6z M531.2,104.8l6.5-6.5H553v12.1l-12.1,12.1h-32.4v-17.8H531.2L531.2,104.8z
					 M600,122.6H579V53.8l12.1-12.1h8.9V122.6L600,122.6z M638.1,41.6l12.1,12.1v68.8h-21.1V100h-25.9V82.1h25.9V59.5h-25.9V41.6
					L638.1,41.6L638.1,41.6z M697.2,122.6h-8.9l-12.1-12.1V41.6h21.1V122.6L697.2,122.6z M700.4,104.8h40.5v17.8h-40.5V104.8z
					 M783.9,122.6H775l-12.1-12.1V41.6h21.1V122.6L783.9,122.6z M787.1,104.8h40.5v17.8h-40.5V104.8z M870.5,122.6h-21.1V53.8
					l12.1-12.1h8.9V122.6L870.5,122.6z M908.6,41.6l12.1,12.1v68.8h-21.1V100h-25.9V82.1h25.9V59.5h-25.9V41.6L908.6,41.6
					L908.6,41.6z M996.9,41.6h21.1v81h-18.6L946.6,47v-5.3h18.6l31.6,45L996.9,41.6L996.9,41.6z M946.6,52.3l21.1,30.1v40.2h-21.1
					V52.3z M1064.9,122.6h-21.1v-81h21.1V122.6z M1103,41.6l12.1,12.1v56.7l-12.1,12.1h-34.8v-17.8h25.9V59.5h-25.9V41.6L1103,41.6z
					"/>
			</g>
			<g id="SvgjsG1195_2_" transform="matrix(0.25881649,0,0,0.33539199,138.72243,41.59153)">
				<path id="path44567_2_" class="st1" d="M1007.5,347.3h-8.9l-12.1-12.1v-56.7l12.1-12.1h8.9V347.3L1007.5,347.3z M1043.2,266.4
					l12.1,12.1v12.1h-15.4l-6.5-6.5h-22.7v-17.8H1043.2L1043.2,266.4z M1033.4,329.5l6.5-6.5h15.4v12.1l-12.1,12.1h-32.4v-17.8
					H1033.4L1033.4,329.5z M1102.3,347.3h-8.9l-12.1-12.1v-56.7l12.1-12.1h8.9V347.3L1102.3,347.3z M1140.4,266.4l12.1,12.1v56.7
					l-12.1,12.1h-34.8v-17.8h25.9v-45.4h-25.9v-17.8H1140.4z M1228.6,266.4h21.1v81h-18.6l-52.6-75.6v-5.3h18.6l31.6,45
					L1228.6,266.4L1228.6,266.4z M1178.4,277l21.1,30.1v40.2h-21.1V277z M1296.7,297.9h39.7l12.1,12.1v25.1l-12.1,12.1h-8.9v-31.6
					h-39.7l-12.1-12.1v-25.1l12.1-12.1h8.9V297.9z M1336.4,266.4l12.1,12.1v12.1h-15.4l-6.5-6.5h-26.7v-17.8H1336.4L1336.4,266.4z
					 M1324.2,329.5v17.8h-36.4l-12.1-12.1V323h15.4l6.5,6.5L1324.2,329.5L1324.2,329.5z M1395.5,347.3h-8.9l-12.1-12.1v-68.8h21.1
					V347.3L1395.5,347.3z M1424.6,266.4h21.1v68.8l-12.1,12.1h-34.8v-17.8h25.9L1424.6,266.4L1424.6,266.4z M1492.7,347.3h-8.9
					l-12.1-12.1v-68.8h21.1V347.3L1492.7,347.3z M1495.9,329.5h40.5v17.8h-40.5V329.5z M1573.2,266.4v17.8h-20.6v-17.8H1573.2z
					 M1576.4,266.4h45v17.8h-24v63.2h-21.1L1576.4,266.4L1576.4,266.4z M1662.7,347.3h-21.1v-68.8l12.1-12.1h8.9V347.3L1662.7,347.3
					z M1700.8,266.4l12.1,12.1v68.8h-21.1v-22.7H1666v-17.8h25.9v-22.7H1666v-17.8L1700.8,266.4L1700.8,266.4z M1789.1,266.4h21.1
					v81h-18.6l-52.6-75.6v-5.3h18.6l31.6,45L1789.1,266.4L1789.1,266.4z M1738.9,277l21.1,30.1v40.2h-21.1V277z M1857.1,347.3h-8.9
					l-12.1-12.1v-56.7l12.1-12.1h8.9V347.3L1857.1,347.3z M1892.8,266.4l12.1,12.1v12.1h-15.4l-6.5-6.5h-22.7v-17.8H1892.8
					L1892.8,266.4z M1883,329.5l6.5-6.5h15.4v12.1l-12.1,12.1h-32.4v-17.8H1883L1883,329.5z M1963.7,297.5l-11,20.2l-25.9-41.6v-9.7
					h18.6L1963.7,297.5z M1984.3,266.4h18.6v9.7l-27.5,44.5v26.7h-20.9v-26.9L1984.3,266.4z M2096,297.9h39.7l12.1,12.1v25.1
					l-12.1,12.1h-8.9v-31.6h-39.7l-12.1-12.1v-25.1l12.1-12.1h8.9V297.9z M2135.7,266.4l12.1,12.1v12.1h-15.4l-6.5-6.5h-26.7v-17.8
					H2135.7L2135.7,266.4z M2123.6,329.5v17.8h-36.4l-12.1-12.1V323h15.4l6.5,6.5L2123.6,329.5L2123.6,329.5z M2194.8,347.3h-8.9
					l-12.1-12.1v-68.8h21.1L2194.8,347.3L2194.8,347.3z M2198.1,266.4h44.5v17.8h-44.5V266.4z M2236.1,297.9v17.8h-38.1v-17.8
					H2236.1z M2198.1,347.3v-17.8h44.5v17.8H2198.1z M2289.6,347.3h-21.1v-81h21.1V347.3z M2341.4,278.5v28.3l-12.1,12.1l12.1,18.6
					v9.7H2322l-16.8-27.5h-12.3V302h27.5v-17.8h-27.5v-17.8h36.4L2341.4,278.5z M2399.8,314.5l-10.5,29.6l-25.9-68v-9.7h19.4
					L2399.8,314.5z M2420,266.4h19.4v9.7l-27.1,71.3h-21.1L2420,266.4z M2458.9,347.3v-16.2h6.5v-48.6h-6.5v-16.2h34v16.2h-6.5v48.6
					h6.5v16.2H2458.9z M2537.4,347.3h-8.9l-12.1-12.1v-56.7l12.1-12.1h8.9V347.3L2537.4,347.3z M2573.1,266.4l12.1,12.1v12.1h-15.4
					l-6.5-6.5h-22.7v-17.8H2573.1L2573.1,266.4z M2563.4,329.5l6.5-6.5h15.4v12.1l-12.1,12.1h-32.4v-17.8H2563.4L2563.4,329.5z
					 M2632.2,347.3h-8.9l-12.1-12.1v-68.8h21.1V347.3L2632.2,347.3z M2635.4,266.4h44.5v17.8h-44.5V266.4z M2673.5,297.9v17.8h-38.1
					v-17.8H2673.5z M2635.4,347.3v-17.8h44.5v17.8H2635.4z M2726.9,297.9h39.7l12.1,12.1v25.1l-12.1,12.1h-8.9v-31.6H2718
					l-12.1-12.1v-25.1l12.1-12.1h8.9V297.9z M2766.6,266.4l12.1,12.1v12.1h-15.4l-6.5-6.5h-26.7v-17.8H2766.6L2766.6,266.4z
					 M2754.5,329.5v17.8H2718l-12.1-12.1V323h15.4l6.5,6.5L2754.5,329.5L2754.5,329.5z"/>
			</g>
		</g>
	</g>
</g>
<sodipodi:namedview  bordercolor="#666666" borderopacity="1.0" id="namedview44174" inkscape:current-layer="layer1" inkscape:cx="490.20521" inkscape:cy="101.19903" inkscape:document-units="mm" inkscape:pagecheckerboard="0" inkscape:pageopacity="0.0" inkscape:pageshadow="2" inkscape:window-height="1016" inkscape:window-maximized="1" inkscape:window-width="2560" inkscape:window-x="0" inkscape:window-y="0" inkscape:zoom="0.69664703" pagecolor="#ffffff" showgrid="true">
	<inkscape:grid  id="grid44176" type="xygrid"></inkscape:grid>
</sodipodi:namedview>
<circle class="st2" cx="107.9" cy="66.5" r="2.9"/>
<circle class="st2" cx="20.1" cy="104.7" r="2.9"/>
<circle class="st2" cx="107.9" cy="132.8" r="2.9"/>
<circle class="st2" cx="320.9" cy="66.5" r="2.9"/>
<circle class="st2" cx="234.9" cy="104.7" r="2.9"/>
<circle class="st2" cx="320.9" cy="132.8" r="2.9"/>
<circle class="st2" cx="128.2" cy="66.5" r="2.9"/>
<circle class="st2" cx="128.2" cy="132.8" r="2.9"/>
</svg>
