<?xml version="1.0" encoding="utf-8"?>
<!-- Generator: Adobe Illustrator 23.0.5, SVG Export Plug-In . SVG Version: 6.00 Build 0)  -->
<svg version="1.1"
	 id="svg44172" xmlns:cc="http://creativecommons.org/ns#" xmlns:dc="http://purl.org/dc/elements/1.1/" xmlns:inkscape="http://www.inkscape.org/namespaces/inkscape" xmlns:rdf="http://www.w3.org/1999/02/22-rdf-syntax-ns#" xmlns:sodipodi="http://sodipodi.sourceforge.net/DTD/sodipodi-0.dtd" xmlns:svg="http://www.w3.org/2000/svg"
	 xmlns="http://www.w3.org/2000/svg" xmlns:xlink="http://www.w3.org/1999/xlink" x="0px" y="0px" viewBox="0 0 921.3 283.5"
	 style="enable-background:new 0 0 921.3 283.5;" xml:space="preserve">
<style type="text/css">
	.st0{fill-rule:evenodd;clip-rule:evenodd;}
	.st1{fill:#FFFFFF;}
</style>
<title  id="title1190">scalland.com</title>
<sodipodi:namedview  bordercolor="#666666" borderopacity="1.0" id="namedview44174" inkscape:current-layer="SvgjsG1195-1" inkscape:cx="626.57269" inkscape:cy="199.16829" inkscape:deskcolor="#d1d1d1" inkscape:document-units="mm" inkscape:pagecheckerboard="0" inkscape:pageopacity="0.0" inkscape:pageshadow="2" inkscape:showpageshadow="2" inkscape:window-height="1262" inkscape:window-maximized="1" inkscape:window-width="2400" inkscape:window-x="4792" inkscape:window-y="-8" inkscape:zoom="1.3932941" pagecolor="#ffffff" showgrid="true">
	<inkscape:grid  id="grid44176" originx="0" originy="0" type="xygrid"></inkscape:grid>
</sodipodi:namedview>
<g id="g40418" transform="matrix(0.23029396,0,0,0.23029396,-264.5143,111.95844)">
</g>
<g id="g272" transform="matrix(0.64777175,0,0,0.49574753,-0.75121413,13.242306)">
	<rect id="rect33" x="59.9" y="170.7" class="st0" width="150.4" height="50.3"/>
	
		<path id="path326-8" sodipodi:arc-type="arc" sodipodi:cx="25.044704" sodipodi:cy="20.266668" sodipodi:end="5.8310314" sodipodi:open="true" sodipodi:rx="0.73288816" sodipodi:ry="0.93459368" sodipodi:start="0" sodipodi:type="arc" class="st1" d="
		M70.9,183.1c0,1.3-0.8,2.5-1.8,2.6c-1,0.2-2-0.7-2.3-2s0.3-2.6,1.3-3.1c1-0.4,2.1,0.1,2.6,1.3"/>
	<rect id="rect33-8" x="222.9" y="170.7" class="st0" width="150" height="75"/>
	<rect id="rect33-8-2" x="222.9" y="260.7" class="st0" width="150" height="75"/>
	
		<path id="path326-0" sodipodi:arc-type="arc" sodipodi:cx="82.136688" sodipodi:cy="69.592445" sodipodi:end="5.8310314" sodipodi:open="true" sodipodi:rx="0.73288816" sodipodi:ry="0.93459368" sodipodi:start="0" sodipodi:type="arc" class="st1" d="
		M232.8,322.9c0,1.3-0.8,2.5-1.8,2.6c-1,0.2-2-0.7-2.3-2c-0.2-1.3,0.3-2.6,1.3-3.1c1-0.4,2.1,0.1,2.6,1.3"/>
	<rect id="rect33-2" x="60.8" y="230.9" class="st0" width="150" height="46.5"/>
	
		<path id="path326-4" sodipodi:arc-type="arc" sodipodi:cx="72.096123" sodipodi:cy="49.654446" sodipodi:end="5.8310314" sodipodi:open="true" sodipodi:rx="0.73288816" sodipodi:ry="0.93459368" sodipodi:start="0" sodipodi:type="arc" class="st1" d="
		M204.3,266.4c0,1.3-0.8,2.5-1.8,2.6c-1,0.2-2-0.7-2.3-2c-0.2-1.3,0.3-2.6,1.3-3.1c1-0.4,2.1,0.1,2.6,1.3"/>
	<rect id="rect33-2-6" x="60.6" y="288" class="st0" width="150" height="46.5"/>
	
		<path id="path326-5" sodipodi:arc-type="arc" sodipodi:cx="25.117992" sodipodi:cy="69.592445" sodipodi:end="5.8310314" sodipodi:open="true" sodipodi:rx="0.73288816" sodipodi:ry="0.93459368" sodipodi:start="0" sodipodi:type="arc" class="st1" d="
		M71.2,322.9c0,1.3-0.8,2.5-1.8,2.6c-1,0.2-2-0.7-2.3-2c-0.2-1.3,0.3-2.6,1.3-3.1c1-0.4,2.1,0.1,2.6,1.3"/>
	<rect id="rect33-1" x="384.5" y="170.7" class="st0" width="150" height="49.1"/>
	
		<path id="path326-2" sodipodi:arc-type="arc" sodipodi:cx="139.52182" sodipodi:cy="20.370512" sodipodi:end="5.8310314" sodipodi:open="true" sodipodi:rx="0.73288816" sodipodi:ry="0.93459368" sodipodi:start="0" sodipodi:type="arc" class="st1" d="
		M395.4,183.4c0,1.3-0.8,2.5-1.8,2.6s-2-0.7-2.3-2s0.3-2.6,1.3-3.1c1-0.4,2.1,0.1,2.6,1.3"/>
	<rect id="rect33-2-8" x="384.8" y="231.5" class="st0" width="150" height="46.5"/>
	
		<path id="path326-7" sodipodi:arc-type="arc" sodipodi:cx="186.28009" sodipodi:cy="49.342918" sodipodi:end="5.8310314" sodipodi:open="true" sodipodi:rx="0.73288816" sodipodi:ry="0.93459368" sodipodi:start="0" sodipodi:type="arc" class="st1" d="
		M528,265.5c0,1.3-0.8,2.5-1.8,2.6c-1,0.2-2-0.7-2.3-2c-0.2-1.3,0.3-2.6,1.3-3.1c1-0.4,2.1,0.1,2.6,1.3"/>
	<rect id="rect33-2-6-5" x="384.5" y="288.3" class="st0" width="150" height="46.5"/>
	
		<path id="path326-28" sodipodi:arc-type="arc" sodipodi:cx="139.22868" sodipodi:cy="69.592445" sodipodi:end="5.8310314" sodipodi:open="true" sodipodi:rx="0.73288816" sodipodi:ry="0.93459368" sodipodi:start="0" sodipodi:type="arc" class="st1" d="
		M394.6,322.9c0,1.3-0.8,2.5-1.8,2.6c-1,0.2-2-0.7-2.3-2c-0.2-1.3,0.3-2.6,1.3-3.1s2.1,0.1,2.6,1.3"/>
	
		<path id="path324" sodipodi:arc-type="arc" sodipodi:cx="75.980431" sodipodi:cy="99.810966" sodipodi:end="5.8310314" sodipodi:open="true" sodipodi:rx="2.4918196" sodipodi:ry="4.6729684" sodipodi:start="0" sodipodi:type="arc" class="st1" d="
		M220.3,408.6c0,6.7-2.7,12.4-6.3,13.2c-3.6,0.8-6.9-3.6-7.7-10.2s1.1-13.2,4.5-15.5c3.4-2.2,7.1,0.6,8.7,6.7"/>
	
		<path id="path326" sodipodi:arc-type="arc" sodipodi:cx="82.209984" sodipodi:cy="20.370514" sodipodi:end="5.8310314" sodipodi:open="true" sodipodi:rx="0.73288816" sodipodi:ry="0.93459368" sodipodi:start="0" sodipodi:type="arc" class="st1" d="
		M233,183.4c0,1.3-0.8,2.5-1.8,2.6c-1,0.2-2-0.7-2.3-2c-0.2-1.3,0.3-2.6,1.3-3.1c1-0.4,2.1,0.1,2.6,1.3"/>
</g>
<rect id="rect43430" x="367.5" y="67.5" width="15" height="135.9"/>
<g id="g217" transform="matrix(1.0027019,0,0,1,5.4498819,0)">
	<g id="SvgjsG1859" transform="matrix(0.655094,0,0,0.91797096,135.42044,3.447)">
		<path id="path44135" d="M423.6,112.3h39.7l12.1,12.1v25.1l-12.1,12.1h-8.9v-31.6h-39.7l-12.1-12.1V92.8l12.1-12.1h8.9V112.3z
			 M463.3,80.7l12.1,12.1V105h-15.4l-6.5-6.5h-26.7V80.7H463.3L463.3,80.7z M451.2,143.9v17.8h-36.4l-12.1-12.1v-12.1H418l6.5,6.5
			H451.2L451.2,143.9z M522.4,161.7h-8.9l-12.1-12.1V92.8l12.1-12.1h8.9V161.7L522.4,161.7z M558.1,80.7l12.1,12.1V105h-15.4
			l-6.5-6.5h-22.7V80.7H558.1L558.1,80.7z M548.4,143.9l6.5-6.5h15.4v12.1l-12.1,12.1h-32.4v-17.8H548.4L548.4,143.9z M617.2,161.7
			h-21.1V92.8l12.1-12.1h8.9V161.7L617.2,161.7z M655.3,80.7l12.1,12.1v68.8h-21.1V139h-25.9v-17.8h25.9V98.5h-25.9V80.7L655.3,80.7
			L655.3,80.7z M714.4,161.7h-8.9l-12.1-12.1V80.7h21.1V161.7L714.4,161.7z M717.6,143.9h40.5v17.8h-40.5V143.9z M801,161.7h-8.9
			L780,149.5V80.7H801V161.7L801,161.7z M804.3,143.9h40.5v17.8h-40.5V143.9z M887.7,161.7h-21.1V92.8l12.1-12.1h8.9V161.7
			L887.7,161.7z M925.8,80.7l12.1,12.1v68.8h-21.1V139h-25.9v-17.8h25.9V98.5h-25.9V80.7L925.8,80.7L925.8,80.7z M1014,80.7h21.1v81
			h-18.6L963.8,86v-5.3h18.6l31.6,45L1014,80.7L1014,80.7z M963.8,91.4l21.1,30.1v40.2h-21.1V91.4z M1082.1,161.7H1061v-81h21.1
			V161.7z M1120.1,80.7l12.1,12.1v56.7l-12.1,12.1h-34.8v-17.8h25.9V98.5h-25.9V80.7H1120.1z"/>
	</g>
	<g id="SvgjsG1195" transform="matrix(0.25881649,0,0,0.33539199,138.72243,41.59153)">
		<path id="path44567" d="M1051,454.2h-8.9L1030,442v-56.7l12.1-12.1h8.9V454.2L1051,454.2z M1086.7,373.2l12.1,12.1v12.1h-15.4
			l-6.5-6.5h-22.7v-17.8H1086.7L1086.7,373.2z M1077,436.4l6.5-6.5h15.4V442l-12.1,12.1h-32.4v-17.8H1077L1077,436.4z M1145.8,454.2
			h-8.9l-12.1-12.1v-56.7l12.1-12.1h8.9V454.2L1145.8,454.2z M1183.9,373.2l12.1,12.1v56.7l-12.1,12.1H1149v-17.8h25.9V391H1149
			v-17.8H1183.9z M1272.1,373.2h21.1v81h-18.6l-52.6-75.6v-5.3h18.6l31.6,45L1272.1,373.2L1272.1,373.2z M1221.9,383.9L1243,414
			v40.2h-21.1V383.9z M1340.2,404.8h39.7l12.1,12.1V442l-12.1,12.1h-8.9v-31.6h-39.7l-12.1-12.1v-25.1l12.1-12.1h8.9V404.8z
			 M1379.9,373.2l12.1,12.1v12.1h-15.4l-6.5-6.5h-26.7v-17.8H1379.9L1379.9,373.2z M1367.7,436.4v17.8h-36.4l-12.1-12.1v-12.1h15.4
			l6.5,6.5L1367.7,436.4L1367.7,436.4z M1439,454.2h-8.9l-12.1-12.1v-68.8h21.1V454.2L1439,454.2z M1468.1,373.2h21.1v68.8
			l-12.1,12.1h-34.8v-17.8h25.9L1468.1,373.2L1468.1,373.2z M1536.2,454.2h-8.9l-12.1-12.1v-68.8h21.1V454.2L1536.2,454.2z
			 M1539.4,436.4h40.5v17.8h-40.5V436.4z M1616.7,373.2V391h-20.6v-17.8H1616.7z M1619.9,373.2h45V391h-24v63.2h-21.1L1619.9,373.2
			L1619.9,373.2z M1706.2,454.2h-21.1v-68.8l12.1-12.1h8.9V454.2L1706.2,454.2z M1744.3,373.2l12.1,12.1v68.8h-21.1v-22.7h-25.9
			v-17.8h25.9V391h-25.9v-17.8L1744.3,373.2L1744.3,373.2z M1832.6,373.2h21.1v81H1835l-52.6-75.6v-5.3h18.6l31.6,45L1832.6,373.2
			L1832.6,373.2z M1782.4,383.9l21.1,30.1v40.2h-21.1V383.9z M1900.6,454.2h-8.9l-12.1-12.1v-56.7l12.1-12.1h8.9V454.2L1900.6,454.2
			z M1936.3,373.2l12.1,12.1v12.1H1933l-6.5-6.5h-22.7v-17.8H1936.3L1936.3,373.2z M1926.5,436.4l6.5-6.5h15.4V442l-12.1,12.1h-32.4
			v-17.8H1926.5L1926.5,436.4z M2007.2,404.3l-11,20.2l-25.9-41.6v-9.7h18.6L2007.2,404.3z M2027.8,373.2h18.6v9.7l-27.5,44.5v26.7
			H1998v-26.9L2027.8,373.2z M2139.5,404.8h39.7l12.1,12.1V442l-12.1,12.1h-8.9v-31.6h-39.7l-12.1-12.1v-25.1l12.1-12.1h8.9V404.8z
			 M2179.2,373.2l12.1,12.1v12.1H2176l-6.5-6.5h-26.7v-17.8H2179.2L2179.2,373.2z M2167.1,436.4v17.8h-36.4l-12.1-12.1v-12.1h15.4
			l6.5,6.5L2167.1,436.4L2167.1,436.4z M2238.3,454.2h-8.9l-12.1-12.1v-68.8h21.1V454.2L2238.3,454.2z M2241.6,373.2h44.5V391h-44.5
			V373.2z M2279.7,404.8v17.8h-38.1v-17.8H2279.7z M2241.6,454.2v-17.8h44.5v17.8H2241.6z M2333.1,454.2H2312v-81h21.1V454.2z
			 M2384.9,385.4v28.3l-12.1,12.1l12.1,18.6v9.7h-19.4l-16.8-27.5h-12.3v-17.8h27.5V391h-27.5v-17.8h36.4L2384.9,385.4z
			 M2443.3,421.3l-10.5,29.6l-25.9-68v-9.7h19.4L2443.3,421.3z M2463.5,373.2h19.4v9.7l-27.1,71.3h-21.1L2463.5,373.2z
			 M2502.4,454.2V438h6.5v-48.6h-6.5v-16.2h34v16.2h-6.5V438h6.5v16.2H2502.4z M2580.9,454.2h-8.9l-12.1-12.1v-56.7l12.1-12.1h8.9
			V454.2L2580.9,454.2z M2616.6,373.2l12.1,12.1v12.1h-15.4l-6.5-6.5h-22.7v-17.8H2616.6L2616.6,373.2z M2606.9,436.4l6.5-6.5h15.4
			V442l-12.1,12.1h-32.4v-17.8H2606.9L2606.9,436.4z M2675.7,454.2h-8.9l-12.1-12.1v-68.8h21.1V454.2L2675.7,454.2z M2678.9,373.2
			h44.5V391h-44.5V373.2z M2717,404.8v17.8h-38.1v-17.8H2717z M2678.9,454.2v-17.8h44.5v17.8H2678.9z M2770.5,404.8h39.7l12.1,12.1
			V442l-12.1,12.1h-8.9v-31.6h-39.7l-12.1-12.1v-25.1l12.1-12.1h8.9V404.8z M2810.1,373.2l12.1,12.1v12.1h-15.4l-6.5-6.5h-26.7
			v-17.8H2810.1L2810.1,373.2z M2798,436.4v17.8h-36.4l-12.1-12.1v-12.1h15.4l6.5,6.5L2798,436.4L2798,436.4z"/>
	</g>
</g>
</svg>
